<svg xmlns="http://www.w3.org/2000/svg" width="112" height="112" viewBox="0 0 112 112"><defs><style>.a{fill:#fefefe;}</style></defs><path class="a" d="M29.531,0A3.281,3.281,0,0,0,26.25,3.281v9.844H3.281A3.281,3.281,0,0,0,0,16.406v92.313A3.281,3.281,0,0,0,3.281,112h26.25a3.281,3.281,0,0,0,3.281-3.281V3.281A3.281,3.281,0,0,0,29.531,0Z"/><path class="a" d="M256.71,181h39.375v12.906H256.71Z" transform="translate(-200.555 -141.406)"/><path class="a" d="M247.328,90H177.984v89.031a9.764,9.764,0,0,1-.564,3.281h69.908a3.282,3.282,0,0,0,3.281-3.281V93.281A3.282,3.282,0,0,0,247.328,90Zm-49.282,78.969h-6.562a3.281,3.281,0,0,1,0-6.562h6.563a3.281,3.281,0,0,1,0,6.563Zm0-13.125h-6.562a3.281,3.281,0,0,1,0-6.562h6.563a3.281,3.281,0,0,1,0,6.563Zm0-13.125h-6.562a3.281,3.281,0,0,1,0-6.562h6.563a3.281,3.281,0,0,1,0,6.563Zm19.688,26.25h-6.562a3.281,3.281,0,0,1,0-6.562h6.563a3.281,3.281,0,0,1,0,6.563Zm0-13.125h-6.562a3.281,3.281,0,0,1,0-6.562h6.563a3.281,3.281,0,0,1,0,6.563Zm0-13.125h-6.562a3.281,3.281,0,0,1,0-6.562h6.563a3.281,3.281,0,0,1,0,6.563Zm19.688,26.25h-6.562a3.281,3.281,0,0,1,0-6.562h6.563a3.281,3.281,0,0,1,0,6.563Zm0-13.125h-6.562a3.281,3.281,0,0,1,0-6.562h6.563a3.281,3.281,0,0,1,0,6.563Zm0-13.125h-6.562a3.281,3.281,0,0,1,0-6.562h6.563a3.281,3.281,0,0,1,0,6.563Zm3.281-16.625a3.281,3.281,0,0,1-3.281,3.281H191.483a3.281,3.281,0,0,1-3.281-3.281V106.625a3.281,3.281,0,0,1,3.281-3.281h45.938a3.281,3.281,0,0,1,3.281,3.281Z" transform="translate(-138.609 -70.313)"/></svg>